<svg width="19" height="19" viewBox="0 0 19 19" fill="none" xmlns="http://www.w3.org/2000/svg">
<g clip-path="url(#clip0_2989_201)">
<path d="M18.6739 9.71052C18.6739 8.93165 18.6121 8.36328 18.4782 7.77386H9.77241V11.2893H14.8825C14.7795 12.1629 14.2232 13.4786 12.9868 14.3627L12.9695 14.4804L15.7221 16.6589L15.9128 16.6784C17.6642 15.0258 18.6739 12.5945 18.6739 9.71052Z" fill="#4285F4"/>
<path d="M9.7724 18.9729C12.2759 18.9729 14.3776 18.1308 15.9128 16.6783L12.9868 14.3627C12.2038 14.9205 11.1529 15.31 9.7724 15.31C7.32038 15.31 5.23926 13.6575 4.49739 11.3735L4.38865 11.383L1.52646 13.6459L1.48903 13.7522C3.01381 16.8467 6.14583 18.9729 9.7724 18.9729Z" fill="#34A853"/>
<path d="M4.4974 11.3735C4.30165 10.7841 4.18836 10.1525 4.18836 9.49998C4.18836 8.84736 4.30165 8.21586 4.4871 7.62645L4.48191 7.50092L1.58385 5.2016L1.48903 5.24768C0.860597 6.53179 0.5 7.9738 0.5 9.49998C0.5 11.0262 0.860597 12.4681 1.48903 13.7522L4.4974 11.3735Z" fill="#FBBC05"/>
<path d="M9.7724 3.68997C11.5135 3.68997 12.688 4.45832 13.3577 5.10042L15.9746 2.4901C14.3674 0.963925 12.2759 0.0271606 9.7724 0.0271606C6.14583 0.0271606 3.01381 2.15327 1.48903 5.24772L4.48709 7.62649C5.23926 5.34248 7.32038 3.68997 9.7724 3.68997Z" fill="#EB4335"/>
</g>
<defs>
<clipPath id="clip0_2989_201">
<rect x="0.5" width="18.1739" height="19" rx="9.08696" fill="white"/>
</clipPath>
</defs>
</svg>
